<?xml version="1.0" standalone="no"?>
<!DOCTYPE svg PUBLIC "-//W3C//DTD SVG 20010904//EN"
 "http://www.w3.org/TR/2001/REC-SVG-20010904/DTD/svg10.dtd">
<svg version="1.0" xmlns="http://www.w3.org/2000/svg"
 width="700.000000pt" height="700.000000pt" viewBox="0 0 700.000000 700.000000"
 preserveAspectRatio="xMidYMid meet">
<metadata>
Created by potrace 1.14, written by Peter Selinger 2001-2017
</metadata>
<g transform="translate(0.000000,700.000000) scale(0.100000,-0.100000)"
fill="#000000" stroke="none">
<path d="M3227 6255 c-1 -2 -42 -5 -92 -8 -140 -9 -261 -51 -391 -135 -94 -61
-93 -58 -23 -146 180 -228 300 -468 338 -676 13 -73 7 -231 -13 -305 -35 -130
-120 -264 -236 -372 -50 -48 -176 -140 -232 -171 -20 -12 -54 -32 -75 -45 -41
-25 -210 -108 -308 -150 -33 -14 -141 -60 -240 -102 -280 -119 -415 -198 -529
-309 -124 -120 -184 -226 -245 -431 -23 -77 -32 -91 -77 -122 -62 -44 -153
-12 -173 61 -27 99 67 363 189 533 66 91 203 219 309 288 54 35 108 69 122 75
13 5 31 14 39 20 23 15 163 79 365 165 538 230 736 368 826 575 20 46 24 71
24 160 0 117 -4 141 -41 238 -41 110 -130 259 -241 404 -40 52 -49 59 -111 77
-129 38 -303 54 -407 37 -131 -21 -188 -40 -365 -121 -329 -149 -559 -314
-651 -468 -32 -54 -34 -55 -93 -67 -129 -25 -303 -104 -414 -188 -203 -152
-336 -352 -403 -607 -23 -90 -34 -306 -19 -390 5 -27 11 -72 15 -98 l6 -48 32
25 c18 15 68 54 112 88 44 34 82 64 85 67 7 8 100 71 104 71 2 0 43 25 91 55
106 66 143 78 193 62 43 -14 82 -67 82 -111 0 -36 -34 -96 -70 -123 -14 -11
-77 -50 -140 -88 -414 -246 -565 -462 -555 -794 3 -89 14 -190 22 -204 2 -4 7
-20 9 -35 18 -99 98 -236 192 -328 80 -80 206 -151 317 -178 361 -91 804 40
1231 365 l101 77 32 -16 c50 -24 125 -96 151 -146 21 -39 35 -50 102 -81 115
-54 205 -75 338 -80 87 -3 135 1 195 15 164 38 147 26 175 112 14 42 28 80 33
84 4 4 7 14 7 22 0 7 24 51 54 97 78 120 197 239 402 400 273 216 405 353 468
485 26 54 31 77 31 140 0 93 -4 110 -50 200 -30 61 -166 273 -185 290 -20 18
-134 202 -176 286 -107 213 -132 416 -75 614 52 182 192 379 403 565 38 33 68
64 68 68 0 17 -108 122 -172 167 -67 47 -209 114 -261 124 -15 2 -35 7 -46 11
-19 6 -150 23 -154 20z"/>
<path d="M4400 5874 c-104 -16 -153 -31 -234 -69 -214 -100 -451 -348 -521
-545 -42 -118 -39 -247 9 -374 36 -95 69 -150 224 -379 203 -299 254 -416 255
-582 2 -200 -82 -365 -292 -575 -96 -95 -167 -157 -286 -245 -94 -70 -224
-185 -275 -245 -238 -276 -235 -522 8 -752 174 -164 444 -228 701 -167 69 17
219 93 283 144 155 124 281 369 353 690 52 232 66 259 143 271 84 13 153 -61
143 -156 -3 -33 -44 -208 -70 -295 -50 -174 -140 -379 -239 -543 l-50 -82 42
-53 c81 -98 218 -179 356 -208 79 -17 230 -6 314 22 38 13 103 45 143 71 41
26 79 48 87 48 23 0 130 -57 181 -96 187 -146 458 -124 630 50 33 34 69 79 80
101 11 22 21 42 22 44 2 2 34 10 73 17 105 20 192 66 269 144 77 78 78 79 112
150 35 73 52 147 51 228 -1 118 -27 203 -90 293 -75 107 -176 163 -441 243
-102 31 -186 58 -188 60 -3 2 -10 30 -18 62 -38 164 -114 341 -196 459 -185
268 -463 367 -829 294 -85 -17 -202 -50 -232 -65 -16 -8 -28 -12 -28 -10 0 3
-26 -7 -57 -21 -42 -19 -76 -27 -120 -27 -58 -1 -65 2 -95 31 -56 56 -42 139
33 195 32 24 230 94 336 118 406 95 690 64 941 -104 63 -42 171 -143 224 -211
87 -109 174 -283 233 -463 23 -71 30 -83 53 -88 171 -39 311 -98 423 -180 l47
-34 21 53 c41 103 53 183 48 317 -3 69 -7 134 -10 145 -19 75 -63 185 -99 246
-48 82 -156 201 -220 245 -24 16 -45 32 -48 36 -22 29 -273 118 -333 118 -16
0 -18 5 -13 28 3 15 12 61 19 102 72 417 -263 799 -689 785 -55 -2 -126 -11
-157 -20 -31 -9 -60 -14 -65 -11 -4 2 -9 22 -10 43 -8 110 -69 281 -136 382
-45 68 -154 179 -216 221 -186 126 -396 177 -600 144z"/>
<path d="M1750 2452 c-187 -182 -480 -307 -729 -311 l-43 -1 62 -67 c151 -161
185 -268 189 -594 2 -178 -10 -251 -61 -356 -48 -100 -103 -165 -234 -278 -80
-69 -85 -75 -78 -87 7 -11 127 -6 204 7 220 39 557 172 737 292 243 162 381
359 456 648 31 119 31 120 92 181 53 54 178 136 335 221 147 79 210 151 210
241 0 20 -4 22 -32 16 -129 -24 -210 -31 -348 -29 -224 4 -397 43 -605 139
l-90 41 -65 -63z"/>
</g>
</svg>
