<svg xmlns="http://www.w3.org/2000/svg" xmlns:xlink="http://www.w3.org/1999/xlink" width="500" zoomAndPan="magnify" viewBox="0 0 375 374.999991" height="500" preserveAspectRatio="xMidYMid meet" version="1.0"><defs><clipPath id="id1"><path d="M 0.628906 39.703125 L 208 39.703125 L 208 247 L 0.628906 247 Z M 0.628906 39.703125 " clip-rule="nonzero"/></clipPath><clipPath id="id2"><path d="M 166 59 L 374.128906 59 L 374.128906 287 L 166 287 Z M 166 59 " clip-rule="nonzero"/></clipPath></defs><g clip-path="url(#id1)"><path fill="#3870c2" d="M 201.808594 179.625 C 186.660156 199.257812 158.835938 208.035156 153.199219 235.25 C 152.378906 235.488281 151.558594 235.707031 150.742188 235.929688 C 142.265625 238.789062 133.269531 239.085938 124.816406 236.988281 C 120.359375 235.886719 116.0625 234.109375 112.042969 231.6875 C 110.222656 227.011719 106.566406 223.351562 101.089844 220.734375 C 50.480469 263.121094 0.0898438 249.183594 0.648438 202.496094 C 0.910156 179.625 17.738281 169.386719 36.566406 158.390625 C 47.121094 152.230469 39.785156 140.753906 31.609375 145.394531 C 21.976562 150.851562 12.703125 157.210938 4.445312 164.648438 C 4.226562 163.507812 4.027344 162.347656 3.847656 161.167969 C 3.246094 157.390625 2.828125 153.511719 2.609375 149.492188 C 2.566406 137.316406 6.40625 125.320312 13.742188 115.34375 C 22.796875 103.023438 36.347656 94.847656 51.378906 92.589844 C 55.957031 82.292969 69.308594 72.414062 91.433594 62.9375 C 104.425781 56.519531 119.558594 55.9375 132.972656 61.355469 C 174.945312 113.222656 134.429688 124.878906 93.414062 142.835938 C 74.386719 151.152344 56.4375 162.867188 49.960938 189.5625 C 46.839844 202.4375 60.714844 203.898438 63.171875 193.28125 C 67.667969 173.90625 79.441406 163.929688 98.910156 155.410156 C 119.777344 146.292969 151.660156 135.714844 161.355469 113.324219 C 170.707031 91.707031 156.9375 69.132812 143.664062 52.71875 L 142.324219 51.078125 C 153.078125 41.640625 167.769531 37.882812 181.800781 41.121094 C 191.996094 43.460938 200.890625 49.261719 207.128906 57.296875 C 191.015625 70.8125 176.363281 87.390625 180.621094 110.144531 C 182.921875 122.441406 190.136719 132.398438 197.171875 142.394531 C 200.96875 147.792969 206.027344 154.851562 207.507812 161.347656 C 209.105469 168.328125 206.027344 174.226562 201.832031 179.644531 Z M 201.808594 179.625 " fill-opacity="1" fill-rule="evenodd"/></g><path fill="#3870c2" d="M 97.273438 240.148438 C 114.742188 249.765625 135.148438 252.582031 154.558594 248.042969 C 156.097656 255.34375 149.300781 259 140.824219 263.699219 C 111.363281 280.015625 129.09375 276.035156 112.28125 303.070312 C 97.691406 325.984375 54.957031 336.28125 46.703125 334.800781 C 39.886719 333.5625 66.269531 325.34375 65.96875 300.011719 C 65.730469 277.175781 64.832031 272.238281 52.136719 260.460938 C 69.386719 260.421875 85.796875 253.042969 97.273438 240.148438 Z M 97.273438 240.148438 " fill-opacity="1" fill-rule="evenodd"/><g clip-path="url(#id2)"><path fill="#fa7422" d="M 178.664062 264.480469 C 159.09375 248.042969 162.535156 229.808594 188.957031 209.816406 C 274.386719 147.851562 160.375 129.058594 203.929688 79.171875 C 210.046875 72.175781 217.222656 65.996094 225.996094 62.675781 C 237.109375 58.476562 249.640625 58.757812 260.777344 63.894531 C 276.226562 71.015625 286.359375 86.230469 286.941406 103.246094 C 300.292969 98.066406 315.464844 101.1875 325.71875 111.203125 C 335.949219 121.21875 339.410156 136.316406 334.53125 149.792969 C 348.484375 151.273438 360.917969 159.289062 368.03125 171.386719 C 374.6875 182.703125 375.96875 196.359375 371.589844 208.65625 L 371.53125 208.636719 C 371.070312 209.835938 370.53125 211.035156 369.949219 212.195312 C 363.574219 206.738281 355.160156 202.9375 345.324219 200.757812 L 343.386719 200.316406 L 342.945312 198.738281 L 342.90625 198.660156 C 333.113281 165.089844 312.226562 149.890625 284.441406 151.3125 C 279.34375 151.75 272.570312 152.972656 264.113281 154.929688 C 261.953125 155.550781 259.777344 156.269531 257.578125 157.050781 C 255.417969 157.828125 253.238281 158.667969 251.019531 159.589844 C 240.6875 163.886719 246.0625 176.566406 256.296875 172.265625 C 260.65625 170.445312 264.8125 168.96875 268.789062 167.808594 C 271.429688 167.046875 274.007812 166.425781 276.484375 165.949219 C 305.628906 160.449219 324 175.125 331.632812 209.957031 C 346.804688 214.933594 363.355469 216.234375 368.910156 232.628906 C 370.769531 238.109375 370.949219 244.164062 369.191406 249.984375 C 365.734375 261.460938 355.460938 269.539062 343.488281 270.179688 C 340.027344 278.277344 332.773438 284.136719 324.117188 285.773438 C 318.121094 286.933594 311.984375 285.953125 306.726562 283.15625 C 302.730469 279.675781 298.375 277.136719 293.65625 275.539062 C 286.261719 282.15625 276.246094 285.195312 266.3125 283.636719 C 257.117188 282.195312 249.023438 277.015625 243.90625 269.457031 C 254.417969 252.703125 259.078125 240.328125 263.035156 221.074219 C 265.054688 211.253906 251.820312 207.15625 249.601562 218.273438 C 246.222656 235.308594 241.027344 255.523438 225.996094 265.441406 C 214.921875 272.757812 200.710938 274.515625 187.839844 269.4375 C 184.519531 268.140625 181.460938 266.460938 178.664062 264.441406 Z M 178.664062 264.480469 " fill-opacity="1" fill-rule="evenodd"/></g></svg>